<svg width="111" height="41" viewBox="0 0 111 41" fill="none" xmlns="http://www.w3.org/2000/svg">
<g clip-path="url(#clip0_90_208)">
<path d="M19.1059 10.5849C19.6263 10.3121 20.162 10.0683 20.7093 9.8543L21.5007 9.5385C20.3482 13.8957 15.6552 19.978 9.98186 21.0741C11.6925 16.655 14.8601 12.8105 19.1059 10.5849ZM29.0697 20.9817C22.3576 21.1679 15.4969 28.1219 14.31 35.6409C14.105 35.3305 13.6444 34.6206 13.4492 34.3043C12.4655 32.8157 11.5916 31.2573 10.865 29.638C12.3466 28.9125 13.7406 27.9672 15.0082 26.8282C18.5964 23.6042 20.8871 18.9486 21.9442 14.2106C23.0831 9.10596 22.2716 2.86168 21.6804 0.502441C14.5034 3.15062 9.16435 12.6904 9.41224 21.3565L8.40089 21.6516C8.18759 21.7174 7.9731 21.7794 7.75696 21.8358C6.50363 22.1629 5.22437 22.3212 3.94328 22.3259L1.10352 30.9635C2.10733 31.1811 3.10984 31.2973 4.10316 31.3221C4.097 31.3227 4.09084 31.3232 4.08472 31.3237C5.64126 31.2837 7.16909 31.0152 8.63602 30.5403C8.73944 31.7038 8.92307 32.8588 9.19616 33.9973C9.74245 36.2749 10.6147 38.4448 11.712 40.5002H15.7183C17.0407 35.3657 20.3284 30.77 25.4545 28.8034C27.2674 28.1079 29.1984 27.8197 31.1355 27.8988C31.1292 27.8985 29.1417 20.9846 29.0697 20.9817Z" fill="#18AD4E"/>
<path d="M21.6799 0.502238L21.6794 0.5C21.6796 0.5 21.6791 0.5 21.6794 0.5C20.1017 0.963636 18.2188 1.83044 16.0735 3.60842C11.9826 6.99934 9.31987 11.969 8.7261 17.2397C8.62813 18.1098 8.58995 18.9826 8.57036 19.8576C8.55729 20.4409 8.54606 21.0249 8.53606 21.609C8.4909 21.6233 8.44566 21.6374 8.40039 21.6513L9.41179 21.3564C9.1639 12.6902 14.5029 3.15042 21.6799 0.502238Z" fill="#FBC208"/>
<path d="M21.5012 9.53809L20.7099 9.8539C18.7069 14.7545 14.7822 19.0414 9.98242 21.0737C15.6557 19.9776 20.3488 13.8953 21.5012 9.53809Z" fill="#FBC208"/>
<path d="M13.9481 32.4167C13.7494 33.0383 13.5842 33.6684 13.4492 34.3044C13.6444 34.6206 14.105 35.3306 14.31 35.6409C15.497 28.122 22.3576 21.1679 29.0698 20.9817C21.909 20.6893 16.0636 25.8 13.9481 32.4167Z" fill="#FBC208"/>
<path d="M3.94434 22.3256C3.67195 22.3266 3.39944 22.3209 3.12711 22.3081L0.28125 30.9633C1.55685 31.2397 2.83066 31.3557 4.08581 31.3235C4.09193 31.3229 4.09809 31.3224 4.10425 31.3219C3.11073 31.297 2.10803 31.1808 1.10402 30.9633L3.94434 22.3256Z" fill="#FBC208"/>
<path d="M84.84 27.6144L84.3959 27.6978C82.1741 27.6978 80.8596 26.9571 80.4524 25.4757C79.8045 26.9571 78.5549 27.6978 76.7034 27.6978L76.2592 27.6144L76.0547 25.1146L76.4992 25.0312C79.4645 25.0312 80.1273 21.8068 80.6539 20.3037L81.6467 21.1703C81.6094 21.374 81.5448 21.7212 81.4523 22.212C81.3597 22.7027 81.3134 23.0499 81.3134 23.2535C81.3134 23.7536 81.5725 24.1748 82.0909 24.5174C82.6093 24.8599 83.3777 25.0312 84.3959 25.0312L84.84 25.1146V27.6144Z" fill="white"/>
<path d="M86.0701 25.0312V27.6978H84.3906V25.0312H86.0701Z" fill="white"/>
<path d="M88.3421 19.4106C89.8167 21.376 92.9335 25.0712 86.0617 25.0312L85.6172 25.1146V27.6144L86.0617 27.6978C90.761 27.6978 91.9523 24.3714 91.3432 22.1205C90.7244 20.9225 89.5525 20.1883 88.3421 19.4106Z" fill="white"/>
<path d="M109.477 25.4623C110.921 20.3988 104.521 18.5909 101.709 17.908L103.244 15.3418C107.539 16.1996 112.118 19.7026 110.312 25.7216L109.477 25.4623Z" fill="white"/>
<path d="M96.6486 27.3572C100.714 28.5119 105.645 26.5395 106.706 23.0715C107.202 21.4477 106.658 19.2628 104.574 18.6952C102.955 18.2542 101.055 19.4107 100.532 21.4174C99.9692 23.5822 101.174 25.1452 102.653 25.9459C104.616 27.0084 106.939 27.252 109.58 28.1567L110.311 25.7221C106.31 24.3765 100.756 23.3997 101.309 21.4635C101.514 20.7433 102.635 20.2491 103.813 20.4324C105.11 20.6341 106.014 21.6185 106.122 22.3509C106.258 23.2665 104.461 24.2639 102.661 24.7282C99.9853 25.4184 96.3657 25.0842 94.2316 22.8584C92.252 20.7933 88.9374 16.9045 88.9374 16.9045L97.1215 11.8554L97.1271 8.92725L87.3811 14.8967L86.5059 17.6608C86.5059 17.6608 87.7442 18.7623 90.8327 22.0393C92.6577 23.9758 94.425 26.7256 96.6486 27.3572Z" fill="white"/>
<path d="M43.9656 21.5729C43.9656 20.7845 46.7939 19.4575 49.249 18.4079V22.1911C46.7032 23.7277 43.9656 22.4866 43.9656 21.5729ZM76.5008 25.0311H53.2563C51.4641 25.0311 51.286 24.1489 51.286 23.0605V17.5525C51.6167 17.4133 51.9145 17.2858 52.1706 17.1711L52.2131 17.1521C52.2131 17.1521 51.2946 14.8679 51.286 14.8724V13.1924L49.249 14.9821V16.0022C44.2022 18.9342 43.4752 20.5537 43.4785 22.1247C43.4871 26.1355 48.5245 26.6363 49.249 23.0451V23.1081C49.249 25.6428 51.3032 27.6976 53.8374 27.6976H76.7049L76.5008 25.0311Z" fill="white"/>
<path d="M78.9395 30.5173L80.495 28.9619L82.0501 30.5173L80.495 32.0728L78.9395 30.5173Z" fill="white"/>
</g>
<defs>
<clipPath id="clip0_90_208">
<rect width="111" height="41" fill="white"/>
</clipPath>
</defs>
</svg>
